<svg width="20" height="20" viewBox="0 0 20 20" fill="none" xmlns="http://www.w3.org/2000/svg">
<g id="Frame 10" clip-path="url(#clip0_4_27)">
<g id="Group 70">
<path id="behance (1) 1 (Traced)" fill-rule="evenodd" clip-rule="evenodd" d="M0 9.84375V15.9375H3.10699C6.75352 15.9375 7.18836 15.9061 7.97379 15.5865C10.5329 14.545 10.9359 10.7457 8.61219 9.5675C8.2184 9.36781 8.22855 9.41598 8.5418 9.23367C10.1779 8.28145 10.1552 5.52746 8.50187 4.40473C7.59387 3.78809 7.28668 3.75 3.22293 3.75H0V9.84375ZM12.7734 5.07812V5.85938H15.4297H18.0859V5.07812V4.29688H15.4297H12.7734V5.07812ZM6.11328 5.95199C6.73531 6.07234 6.99621 6.23219 7.15586 6.59078C7.37633 7.08598 7.24375 7.86605 6.88945 8.15805C6.48492 8.49152 6.02711 8.55469 4.01469 8.55469H2.46094V7.23309C2.46094 6.50617 2.4741 5.8977 2.49023 5.8809C2.54641 5.82234 5.76996 5.88559 6.11328 5.95199ZM14.6289 6.74121C12.2558 7.10543 10.957 8.79695 10.957 11.5234C10.957 14.05 12.0025 15.5223 14.2007 16.0913C16.6941 16.7366 19.499 15.4176 19.8646 13.4277L19.8915 13.2812H18.6599H17.4282L17.3391 13.4277C16.5527 14.7204 14.2905 14.5999 13.6191 13.2296C13.4858 12.9575 13.3594 12.47 13.3594 12.2282V12.1094H16.6852H20.0111L19.9894 11.2988C19.9034 8.07898 17.764 6.26004 14.6289 6.74121ZM16.0547 8.71859C16.8467 8.90547 17.365 9.49586 17.4796 10.3418L17.5073 10.5469H15.4674H13.4274L13.4525 10.3576C13.6166 9.12074 14.7455 8.40973 16.0547 8.71859ZM6.45012 10.6893C7.16305 10.9063 7.46152 11.2838 7.49285 12.0083C7.53434 12.9671 7.15977 13.5184 6.3191 13.7358C6.11637 13.7882 5.76332 13.8023 4.26758 13.8175L2.46094 13.8359V12.2082V10.5805L4.32617 10.5955C6.05992 10.6095 6.20965 10.6161 6.45012 10.6893Z" fill="#F6F4EA"/>
</g>
</g>
<defs>
<clipPath id="clip0_4_27">
<rect width="20" height="20" fill="white"/>
</clipPath>
</defs>
</svg>
