<svg width="12" height="12" viewBox="0 0 12 12" fill="none" xmlns="http://www.w3.org/2000/svg">
<g id="close" clip-path="url(#clip0_4_76)">
<g id="Group 80">
<path id="close (5) 1 (Traced)" fill-rule="evenodd" clip-rule="evenodd" d="M10.6684 0.809706C10.6111 0.846128 9.53845 1.90855 8.28471 3.17066L6.0052 5.46538L3.66752 3.12922C2.04131 1.50404 1.30983 0.788214 1.26401 0.777104C1.00598 0.714573 0.779083 0.884893 0.779083 1.14116C0.779083 1.29376 0.708583 1.21878 3.15445 3.66728L5.47809 5.99338L3.1301 8.34306C0.58399 10.891 0.725412 10.7351 0.765677 10.9498C0.806201 11.1658 1.089 11.3135 1.27868 11.2176C1.30683 11.2034 2.3819 10.1408 3.66776 8.85634L6.00565 6.52093L8.34354 8.85634C9.62939 10.1408 10.7045 11.2034 10.7326 11.2176C11.0464 11.3762 11.3808 10.9806 11.1975 10.6678C11.165 10.6125 10.1189 9.55482 8.8364 8.28076L6.53355 5.99303L8.86872 3.65537C10.1531 2.36966 11.2155 1.29467 11.2298 1.26653C11.392 0.945409 10.9811 0.611026 10.6684 0.809706Z" fill="#7E7D78"/>
</g>
</g>
<defs>
<clipPath id="clip0_4_76">
<rect width="12" height="12" fill="white"/>
</clipPath>
</defs>
</svg>
