<svg width="20" height="20" viewBox="0 0 20 20" fill="none" xmlns="http://www.w3.org/2000/svg">
<g id="Frame 9">
<g id="Group 69">
<path id="telegram (9) 1 (Traced)" fill-rule="evenodd" clip-rule="evenodd" d="M18.8281 1.45188C18.5914 1.52973 18.748 1.46864 12.8125 3.79844C10.5029 4.70496 6.82031 6.14942 4.62891 7.00825C-0.0180846 8.82954 1.07894e-06 8.82067 1.07894e-06 9.27735C1.07894e-06 9.85215 0.137423 9.92661 2.93195 10.8658L5.11442 11.5993L10.7701 8.00641C17.1475 3.955 16.8625 4.12286 17.0282 4.32246C17.1701 4.49348 17.1376 4.52661 14.5295 6.87157C13.3146 7.96379 11.3151 9.76172 10.0861 10.8669C8.85711 11.9721 7.85238 12.8861 7.85344 12.8981C7.85938 12.9679 15.178 18.5134 15.3422 18.5725C15.9243 18.7821 16.5799 18.5226 16.8063 17.993C16.8769 17.828 20 2.11094 20 1.92086C20 1.44461 19.4813 1.237 18.8281 1.45188Z" fill="#F6F4EA"/>
</g>
</g>
</svg>
