<svg width="160" height="40" viewBox="0 0 160 40" fill="none" xmlns="http://www.w3.org/2000/svg">
<path d="M12.2907 24.407C10.6912 24.407 10.0248 23.7837 10.0248 22.9436V22.8894C10.0248 21.9409 10.6912 21.5886 13.0372 21.1821C14.3168 20.9653 15.5164 20.7214 16.0229 20.5859V21.5344C16.0229 22.6997 15.0099 24.407 12.2907 24.407ZM16.1828 25.6807C16.4761 26.5479 17.1692 27.659 18.6887 27.659H23.5938V23.2417H22.9007C22.0743 23.2417 21.941 22.9165 21.941 22.1848V17.3609C21.941 15.1929 21.3546 12.2119 13.597 12.2119H12.7439C5.09299 12.2119 4.37322 15.5723 4.37322 17.3338V17.3609H10.4513C10.4513 16.846 10.6912 15.8433 13.1705 15.8433H13.2504C15.7297 15.8433 16.0229 16.4937 16.0229 17.1712V17.1983C16.0229 17.7403 15.7563 18.0113 14.9299 18.0926L10.7979 18.4178C5.5995 18.8515 4 20.2878 4 23.0249V23.1333C4 25.8162 5.86608 27.9571 9.99812 27.9571H10.4513C14.0235 27.9571 15.5964 26.3582 16.1828 25.6807Z" fill="#F6F4EA"/>
<path d="M30.1768 27.6436V19.7575C30.1768 17.9147 30.8966 16.8307 32.3894 16.8307C33.8823 16.8307 34.3622 17.8334 34.3622 19.6762V20.1369H40.4669C40.4936 19.5136 40.5202 19.0258 40.5202 18.1857C40.5202 14.8523 39.1873 12.2236 35.3485 12.2236H35.1619C31.9896 12.2236 30.55 14.2832 30.1235 15.0149V12.5488H24.1254V27.6436H30.1768Z" fill="#F6F4EA"/>
<path d="M52.7127 23.1761H50.9799C49.7803 23.1761 49.487 22.7425 49.487 21.5772V16.7262H52.7127V12.5528H49.487V8H43.4889V12.5528H40.3699V16.7262H43.4889V23.6097C43.4889 26.3197 45.0884 27.6476 47.461 27.6476H52.7127V23.1761Z" fill="#F6F4EA"/>
<path d="M62.4929 27.9959C70.1704 27.9959 71.2901 25.3943 71.2901 22.9011V22.6572C71.2901 20.0827 69.8239 18.3483 64.199 18.1315L62.0397 18.0502C60.067 17.9689 59.5338 17.5353 59.5338 16.8036C59.5338 16.1261 60.0403 15.6654 62.0397 15.6654H62.1463C64.3856 15.6654 64.5989 16.4784 64.7322 16.9933H71.0235V16.9391C71.0235 14.771 69.9305 12.2236 62.3862 12.2236H61.7198C55.0019 12.2236 53.429 14.3103 53.429 16.8307V16.9933C53.429 19.3781 54.9486 21.3564 60.1736 21.6545L62.3862 21.8171C64.6522 21.9526 65.0254 22.332 65.0254 23.0908C65.0254 23.7412 64.5189 24.3374 62.4395 24.3374H62.3862C60.067 24.3374 59.8004 23.3618 59.7204 22.9011H53.2424V23.0095C53.2424 24.5271 53.8556 27.9959 61.7731 27.9959H62.4929Z" fill="#F6F4EA"/>
<path d="M77.4922 27.6295V20.0956C77.4922 18.2799 78.4786 16.8165 80.5846 16.8165C82.8239 16.8165 83.5703 18.307 83.5703 19.8246V27.6295H89.5951V20.0956C89.5951 18.3612 90.5815 16.8165 92.6875 16.8165C94.9001 16.8165 95.6732 18.307 95.6732 19.8246V27.6295H101.725V18.1444C101.725 15.326 100.178 12.1553 95.4866 12.1553H95.2733C92.1276 12.1553 90.0483 13.7542 88.902 15.1905C88.0489 13.5374 86.3428 12.1553 83.437 12.1553H83.2504C79.9181 12.1553 78.0787 14.0794 77.4389 14.9466V12.5347H71.4408V27.6295H77.4922Z" fill="#F6F4EA"/>
<path d="M110.243 24.407C108.644 24.407 107.977 23.7837 107.977 22.9436V22.8894C107.977 21.9409 108.644 21.5886 110.99 21.1821C112.269 20.9653 113.469 20.7214 113.976 20.5859V21.5344C113.976 22.6997 112.963 24.407 110.243 24.407ZM114.135 25.6807C114.429 26.5479 115.122 27.659 116.641 27.659H121.546V23.2417H120.853C120.027 23.2417 119.894 22.9165 119.894 22.1848V17.3609C119.894 15.1929 119.307 12.2119 111.55 12.2119H110.697C103.046 12.2119 102.326 15.5723 102.326 17.3338V17.3609H108.404C108.404 16.846 108.644 15.8433 111.123 15.8433H111.203C113.682 15.8433 113.976 16.4937 113.976 17.1712V17.1983C113.976 17.7403 113.709 18.0113 112.883 18.0926L108.751 18.4178C103.552 18.8515 101.953 20.2878 101.953 23.0249V23.1333C101.953 25.8162 103.819 27.9571 107.951 27.9571H108.404C111.976 27.9571 113.549 26.3582 114.135 25.6807Z" fill="#F6F4EA"/>
<path d="M122.124 27.6295H128.176V20.1498C128.176 18.3612 129.322 16.8165 131.588 16.8165C133.934 16.8165 134.84 18.2799 134.84 19.933V27.6295H140.892V17.8734C140.892 15.0821 138.946 12.1553 134.574 12.1553H134.307C130.815 12.1553 128.842 14.0523 128.122 14.9195V12.5347H122.124V27.6295Z" fill="#F6F4EA"/>
<path fill-rule="evenodd" clip-rule="evenodd" d="M138.673 8.36986C138.595 8.57321 138.195 9.96027 137.786 11.4521C137.376 12.9438 136.883 14.7562 136.689 15.4795C136.496 16.2027 136.244 17.3948 136.13 18.1287C136.016 18.8625 135.968 19.5836 136.022 19.7314C136.077 19.8792 136.293 20 136.503 20C136.713 20 136.958 19.9076 137.048 19.7945C137.138 19.6816 137.258 19.2931 137.314 18.9315C137.371 18.5699 137.492 17.9041 137.582 17.4521C137.673 17 137.851 16.2466 137.977 15.7778L138.206 14.9256L138.774 15.3258C139.087 15.5459 139.548 15.726 139.8 15.726C140.052 15.726 140.52 15.6124 140.839 15.4737C141.159 15.335 141.79 14.9324 142.241 14.579C142.787 14.1504 143.198 13.6487 143.475 13.0729C143.789 12.4168 143.889 11.9611 143.889 11.1757C143.889 10.266 143.834 10.0778 143.427 9.60537C143.003 9.11205 142.888 9.06849 142.015 9.06849C141.199 9.06849 140.963 9.14362 140.335 9.60274C139.934 9.89666 139.574 10.137 139.535 10.137C139.496 10.137 139.534 9.94729 139.619 9.71534C139.703 9.4834 139.773 9.09134 139.773 8.84411C139.773 8.59688 139.687 8.30575 139.583 8.19726C139.478 8.08877 139.263 8 139.105 8C138.946 8 138.752 8.16652 138.673 8.36986ZM151.567 9.17567C150.958 9.53321 150.254 10.0252 150.004 10.269C149.753 10.5128 149.416 11.0082 149.255 11.3699C149.074 11.7757 148.961 12.4048 148.96 13.0137C148.958 13.7008 149.046 14.1399 149.25 14.4611C149.411 14.7147 149.7 15.0366 149.892 15.1763C150.084 15.3161 150.654 15.4691 151.158 15.5166C151.689 15.5666 152.321 15.5187 152.659 15.4028C152.98 15.2929 153.653 14.8088 154.154 14.3273C154.691 13.8108 155.256 13.0584 155.532 12.4929C155.858 11.8247 156 11.2939 156 10.7408C156 10.0375 155.934 9.88466 155.421 9.3966C155.103 9.09381 154.569 8.76701 154.234 8.67052C153.899 8.57403 153.412 8.50186 153.15 8.51041C152.889 8.51879 152.177 8.81814 151.567 9.17567ZM145.257 9.01737C145.128 9.2263 144.778 10.137 144.48 11.0411C144.182 11.9452 143.805 13.2256 143.643 13.8864C143.427 14.7678 143.393 15.1619 143.516 15.3659C143.608 15.5187 143.836 15.6673 144.022 15.6961C144.255 15.7321 144.409 15.629 144.515 15.3673C144.599 15.1578 144.815 14.4685 144.994 13.8356C145.173 13.2027 145.514 12.389 145.752 12.0274C146.041 11.5883 146.498 11.2073 147.128 10.8807C147.795 10.535 148.316 10.3875 148.905 10.378C149.363 10.3707 149.785 10.3167 149.841 10.2576C149.898 10.1988 149.945 9.95419 149.945 9.71419C149.945 9.47403 149.847 9.20838 149.727 9.12373C149.607 9.03907 149.135 9.00504 148.678 9.04844C148.22 9.09167 147.465 9.30816 146.999 9.52975L146.152 9.93233L146.168 9.33594C146.182 8.84148 146.126 8.73101 145.838 8.6886C145.614 8.6554 145.409 8.77112 145.257 9.01737ZM154.167 10.0482C154.413 10.1802 154.653 10.4422 154.7 10.6306C154.748 10.819 154.73 11.1797 154.66 11.4318C154.59 11.6842 154.355 12.1834 154.138 12.5413C153.92 12.8991 153.483 13.4283 153.166 13.7169C152.85 14.0056 152.413 14.288 152.197 14.3445C151.98 14.4009 151.564 14.4006 151.271 14.3437C150.979 14.2867 150.629 14.1121 150.493 13.9556C150.357 13.7993 150.229 13.4863 150.209 13.2603C150.189 13.0342 150.183 12.6332 150.197 12.3692C150.214 12.0341 150.436 11.6751 150.931 11.1826C151.322 10.7942 151.91 10.3293 152.238 10.1495C152.565 9.96981 153.033 9.81956 153.277 9.81545C153.521 9.81151 153.921 9.91622 154.167 10.0482ZM142.433 10.4986C142.537 10.6071 142.621 10.9956 142.62 11.3616C142.618 11.745 142.467 12.2996 142.264 12.6693C142.069 13.0224 141.651 13.5276 141.335 13.7919C141.003 14.0699 140.491 14.3102 140.122 14.3615C139.533 14.4435 139.465 14.4115 139.233 13.9458C139.094 13.6681 138.981 13.3365 138.981 13.2088C138.981 13.0811 139.191 12.6892 139.448 12.3378C139.704 11.9861 140.073 11.4861 140.267 11.2264C140.462 10.9666 140.84 10.6551 141.107 10.5341C141.375 10.4132 141.739 10.3114 141.918 10.3078C142.096 10.3043 142.328 10.3901 142.433 10.4986Z" fill="#FF490C"/>
</svg>
